<svg width="640" height="360" viewBox="0 0 640 360" xmlns="http://www.w3.org/2000/svg" role="img" aria-label="Lyceum exterior illustration">
  <defs>
    <linearGradient id="sky" x1="0%" y1="0%" x2="0%" y2="100%">
      <stop stop-color="#eef2ff" offset="0%" />
      <stop stop-color="#e0ecff" offset="100%" />
    </linearGradient>
    <linearGradient id="building" x1="0%" y1="0%" x2="100%" y2="0%">
      <stop stop-color="#4f46e5" offset="0%" />
      <stop stop-color="#7c3aed" offset="100%" />
    </linearGradient>
    <linearGradient id="accent" x1="0%" y1="0%" x2="100%" y2="100%">
      <stop stop-color="#38bdf8" offset="0%" />
      <stop stop-color="#0ea5e9" offset="100%" />
    </linearGradient>
  </defs>
  <rect width="640" height="360" fill="url(#sky)" />
  <rect x="40" y="220" width="560" height="80" fill="#c7d2fe" />
  <rect x="100" y="120" width="440" height="140" rx="8" fill="url(#building)" />
  <rect x="120" y="140" width="80" height="120" rx="4" fill="#eef2ff" opacity="0.9" />
  <rect x="230" y="140" width="80" height="120" rx="4" fill="#eef2ff" opacity="0.9" />
  <rect x="340" y="140" width="80" height="120" rx="4" fill="#eef2ff" opacity="0.9" />
  <rect x="450" y="140" width="70" height="120" rx="4" fill="#eef2ff" opacity="0.9" />
  <rect x="280" y="200" width="80" height="60" rx="4" fill="url(#accent)" />
  <rect x="150" y="250" width="340" height="10" fill="#312e81" opacity="0.6" />
  <circle cx="110" cy="105" r="26" fill="#c7d2fe" opacity="0.65" />
  <circle cx="180" cy="90" r="18" fill="#a5b4fc" opacity="0.75" />
  <circle cx="520" cy="90" r="28" fill="#a5b4fc" opacity="0.7" />
  <path d="M250 120 L320 70 L390 120 Z" fill="#312e81" opacity="0.9" />
  <rect x="305" y="80" width="30" height="20" rx="3" fill="#f1f5f9" />
  <rect x="280" y="260" width="100" height="10" rx="3" fill="#0f172a" opacity="0.2" />
  <rect x="70" y="280" width="500" height="6" rx="3" fill="#94a3b8" opacity="0.6" />
  <rect x="60" y="286" width="520" height="4" rx="2" fill="#cbd5e1" opacity="0.5" />
</svg>
